HIERARCHY
ROOT Hips
{
  OFFSET 2.26061 22.2878 23.7974
  CHANNELS 6 Xposition Yposition Zposition Zrotation Xrotation Yrotation
  JOINT LeftUpLeg
  {
    OFFSET 8.64259 1.95398 -2.38835
    CHANNELS 3 Zrotation Xrotation Yrotation
    JOINT LeftLeg
    {
      OFFSET 43.7702 0 0
      CHANNELS 3 Zrotation Xrotation Yrotation
      JOINT LeftFoot
      {
        OFFSET 40.6238 0 0
        CHANNELS 3 Zrotation Xrotation Yrotation
        JOINT LeftToeBase
        {
          OFFSET 12.7242 0 0
          CHANNELS 3 Zrotation Xrotation Yrotation
          End Site
          {
            OFFSET 0 0 0
          }
        }
      }
    }
  }
  JOINT RightUpLeg
  {
    OFFSET -8.2249 1.95398 -2.59336
    CHANNELS 3 Zrotation Xrotation Yrotation
    JOINT RightLeg
    {
      OFFSET 43.5653 0 0
      CHANNELS 3 Zrotation Xrotation Yrotation
      JOINT RightFoot
      {
        OFFSET 40.6238 0 0
        CHANNELS 3 Zrotation Xrotation Yrotation
        JOINT RightToeBase
        {
          OFFSET 12.7242 0 0
          CHANNELS 3 Zrotation Xrotation Yrotation
          End Site
          {
            OFFSET 0 0 0
          }
        }
      }
    }
  }
  JOINT Spine
  {
    OFFSET 0.165834 0.87714 6.61349
    CHANNELS 3 Zrotation Xrotation Yrotation
    JOINT Spine1
    {
      OFFSET 7.38963 1.71661e-005 0
      CHANNELS 3 Zrotation Xrotation Yrotation
      JOINT Spine2
      {
        OFFSET 11.9445 1.14441e-005 0
        CHANNELS 3 Zrotation Xrotation Yrotation
        JOINT Spine3
        {
          OFFSET 14.7254 4.19617e-005 0
          CHANNELS 3 Zrotation Xrotation Yrotation
          JOINT Spine4
          {
            OFFSET 10.9679 0 0
            CHANNELS 3 Zrotation Xrotation Yrotation
            JOINT RightShoulder
            {
              OFFSET 2.46616 -1.6653 3.69651
              CHANNELS 3 Zrotation Xrotation Yrotation
              JOINT RightArm
              {
                OFFSET 13.0012 0 0
                CHANNELS 3 Zrotation Xrotation Yrotation
                JOINT RightForeArm
                {
                  OFFSET 28.7848 1.52588e-005 0
                  CHANNELS 3 Zrotation Xrotation Yrotation
                  JOINT RightHand
                  {
                    OFFSET 26.5688 1.52588e-005 0
                    CHANNELS 3 Zrotation Xrotation Yrotation
                    End Site
                    {
                      OFFSET 0 0 0
                    }
                  }
                }
              }
            }
            JOINT LeftShoulder
            {
              OFFSET 2.38034 -1.29275 -3.7523
              CHANNELS 3 Zrotation Xrotation Yrotation
              JOINT LeftArm
              {
                OFFSET 16.3182 6.10351e-005 0
                CHANNELS 3 Zrotation Xrotation Yrotation
                JOINT LeftForeArm
                {
                  OFFSET 27.0901 0 0
                  CHANNELS 3 Zrotation Xrotation Yrotation
                  JOINT LeftHand
                  {
                    OFFSET 24.5451 1.52588e-005 0
                    CHANNELS 3 Zrotation Xrotation Yrotation
                    End Site
                    {
                      OFFSET 0 0 0
                    }
                  }
                }
              }
            }
            JOINT Neck
            {
              OFFSET 5.0226 -0.0266342 0
              CHANNELS 3 Zrotation Xrotation Yrotation
              JOINT Head
              {
                OFFSET 6.69363 2.86102e-005 0
                CHANNELS 3 Zrotation Xrotation Yrotation
                End Site
                {
                  OFFSET 0 0 0
                }
              }
            }
          }
        }
      }
    }
  }
}
MOTION
Frames:	18
Frame Time:	0.0416667
-38.4809 88.5813 -41.9493 52.051 -66.8149 35.1259 -174.017 6.72108 88.8642 -55.7625 19.9825 1.15611 42.881 -9.6143 -4.90748 38.2348 7.81848 11.0326 169.915 39.8972 94.3486 -48.44 17.0133 4.66062 82.9663 -7.92978 -3.25457 26.7892 0.0621359 -1.84766 0.16218 7.6697 -89.5797 11.5335 0.519311 0.782398 -0.137532 0.553239 0.758779 -22.6713 0.260163 0.902286 -2.65861 0.260162 0.902288 93.6559 -55.0272 -94.4093 14.9059 -16.4608 19.6108 -17.4809 -19.1041 -68.6739 -22.3672 -0.640597 -1.14324 -97.6531 -51.9308 68.0489 -27.8354 15.3598 23.2406 10.0743 1.20322 -72.1488 26.9035 1.64204 2.24272 6.76597 -14.2492 19.1363 8.7298 -18.3864 -11.2227 
-36.9962 87.2877 -34.844 47.8854 -69.1051 32.7286 -174.714 16.1905 90.829 -72.249 20.081 1.4527 42.9116 -9.30818 -2.85386 38.3131 7.93765 12.2592 171.324 33.5567 96.6588 -48.896 18.0233 3.72267 89.1505 -10.6304 -3.73322 28.2391 0.147173 -2.56256 0.332867 7.99426 -89.9544 10.8858 0.683831 0.0251223 -0.784921 0.684273 -0.00502503 -23.3215 0.644668 0.229493 -3.30884 0.64465 0.229465 93.154 -55.3928 -95.0797 11.1644 -13.7243 9.4648 -20.4876 -18.5834 -70.6251 -26.5562 -0.405272 -2.08452 -98.0396 -52.7722 67.7711 -30.1005 16.1078 25.1232 6.34734 2.95988 -62.5774 30.7323 2.21977 3.39268 9.08328 -13.4811 20.4104 9.73306 -18.28 -10.9549 
-35.8151 86.4375 -27.7218 38.2382 -70.462 24.4024 -174.868 28.0876 91.3397 -83.8716 16.895 1.42029 43.2782 -8.37529 -1.24922 37.2474 6.88901 11.4875 172.15 27.2726 97.9409 -45.9265 18.1884 3.37328 93.4084 -13.446 -4.14819 29.8275 0.180217 -2.31261 0.633104 8.10431 -90.1476 10.6677 1.19291 -0.402079 -1.00275 1.17406 -0.454209 -23.5423 1.25859 -0.0249199 -3.52963 1.25859 -0.0249049 91.7155 -52.2999 -97.7382 12.4923 -11.1406 1.36123 -24.8806 -16.1457 -75.2391 -29.7204 -0.704449 -0.916636 -97.9534 -52.4836 67.7999 -33.5023 17.5904 28.4948 4.76091 5.01286 -55.938 32.5824 2.80226 4.79949 11.3486 -12.8906 21.0154 9.62612 -18.1088 -10.3476 
-35.3153 86.4556 -19.8762 24.2841 -70.4632 9.89731 -172.824 39.7067 89.9003 -87.6145 13.53 0.92321 45.3242 -6.66367 -1.5193 35.6046 5.31216 12.2618 172.936 21.1076 96.4428 -40.9588 13.4043 2.35969 93.1674 -13.5948 -4.21816 33.67 0.304175 -2.45556 1.15743 8.00567 -89.9898 10.8672 2.30926 -0.196241 -0.801771 2.29839 -0.297745 -23.3529 2.26142 0.507216 -3.34023 2.26142 0.507222 92.2162 -48.4865 -97.7136 16.1341 -10.4278 -4.5704 -25.9749 -11.2042 -81.4003 -30.4775 -0.48102 -1.87012 -97.2201 -51.6662 68.5859 -36.5037 20.1862 34.1798 6.459 6.91593 -56.2545 29.4666 2.49272 4.64609 13.1483 -12.5646 21.279 7.94407 -17.9337 -9.65795 
-35.2345 87.748 -11.1448 12.6428 -70.9615 -2.56555 -170.362 46.4224 87.8055 -82.9291 13.2341 0.124258 48.5281 -5.35499 -1.57913 35.7307 5.43016 14.4202 173.515 12.8525 93.8342 -34.1542 6.90474 0.667822 85.4331 -10.6925 -4.06207 40.1659 0.464691 -2.42714 1.66832 7.95395 -89.6909 10.9658 3.46446 0.285801 -0.700574 3.47369 0.13286 -23.2686 3.21824 1.31486 -3.25598 3.21824 1.31486 92.8426 -46.6338 -97.082 18.7335 -11.2752 -8.29514 -28.5071 -5.9912 -86.8825 -31.1384 -0.517219 -1.72489 -95.846 -49.73 69.979 -40.4918 21.4233 41.8684 7.17434 5.40295 -60.8656 27.3163 1.74547 2.56147 12.3421 -13.935 20.1235 7.43818 -18.9143 -10.5792 
-35.2034 89.789 -1.65706 7.39296 -70.4571 -8.38555 -169.706 50.0597 85.7453 -70.9668 13.1915 -0.954042 51.2609 -4.62463 -2.64006 36.1592 5.86195 14.8575 173.622 6.85579 91.1622 -28.8778 0.199252 -1.11511 70.2212 -4.90153 -2.55847 46.3437 0.755616 -1.57605 1.9293 7.8339 -89.426 11.1979 4.10675 0.739396 -0.466649 4.13529 0.557608 -23.0443 3.69444 1.94099 -3.03166 3.69444 1.94096 92.8372 -43.9775 -97.6256 21.3598 -12.9094 -9.77376 -30.5796 -2.46487 -92.7156 -31.4985 -0.484015 -1.81204 -94.2982 -47.3149 71.5602 -43.8945 21.1038 47.1945 7.0269 3.50972 -64.6777 26.6149 1.54065 1.93278 13.3068 -14.446 19.4659 5.16558 -19.2998 -11.7862 
-34.8201 91.582 8.25593 7.34872 -69.2449 -9.03309 -169.853 51.4056 83.617 -53.6364 14.0029 -2.56925 51.4363 -5.52906 -5.26267 38.0226 7.79308 15.931 172.878 3.43062 88.3121 -25.3808 -5.33973 -2.17758 50.929 1.59376 1.48456 42.0703 0.745756 1.57084 2.0113 7.65074 -89.2424 11.5574 4.35577 1.06147 -0.106485 4.39827 0.868383 -22.6861 3.83519 2.32309 -2.67343 3.83518 2.32308 92.0466 -41.8531 -99.4218 23.8688 -14.9321 -7.66093 -31.8605 1.34303 -97.4854 -33.08 -0.623979 -1.36675 -95.2486 -45.6261 69.5775 -45.6453 18.5182 50.1004 7.11576 2.21224 -67.2268 26.8834 1.25822 0.794339 14.8138 -14.5013 20.8015 2.54715 -19.7549 -13.7304 
-34.4292 92.8704 18.427 5.25849 -68.562 -10.0619 -171.123 49.8618 83.8019 -34.2325 20.9066 -4.14392 51.6228 -5.72353 -0.889051 39.9568 9.78411 15.9693 174.559 0.591768 88.9842 -25.8757 -9.62577 -4.81576 42.3541 4.46006 4.34735 30.188 0.312318 -5.50262 2.11521 7.53406 -89.2709 11.793 4.54933 0.971759 0.1298 4.58768 0.770181 -22.4557 4.04669 2.29602 -2.44301 4.04669 2.29603 92.5407 -41.4412 -98.6726 24.0236 -17.7457 -6.52842 -32.2867 2.89083 -99.0953 -32.9162 -0.696848 -1.14426 -95.8065 -45.2469 68.591 -45.593 17.0872 49.6893 7.47403 1.53652 -68.995 27.5728 1.09481 0.0594667 16.7968 -13.8379 22.5061 0.0151894 -19.6449 -15.1413 
-34.1584 92.8928 28.3986 2.38871 -68.7256 -10.3694 -170.843 48.7644 84.9476 -23.9669 19.4368 -5.20097 51.15 -6.46163 -2.48498 45.763 16.0064 17.4924 177.309 0.424687 90.4848 -34.9328 -5.70933 -5.73763 43.4347 3.59222 3.51916 28.2277 0.371852 -5.80279 2.13928 7.47741 -89.4301 11.9138 4.52227 0.650138 0.250664 4.54649 0.450052 -22.3379 4.11748 1.98136 -2.32527 4.11749 1.98136 92.7417 -41.8024 -98.2491 24.4343 -20.5713 -4.53546 -28.7911 0.733147 -96.5741 -32.6974 -0.438925 -2.25591 -95.4753 -45.5808 69.2134 -44.1792 15.9328 47.5232 6.99224 0.33565 -71.5389 28.2789 1.13052 0.0833562 17.6372 -13.4061 20.6924 -0.225272 -18.8422 -14.1903 
-34.1173 91.8596 38.0268 1.00812 -71.038 -9.59754 -169.653 46.9794 85.0164 -25.9064 17.8576 -5.69786 50.3562 -7.109 -4.27793 48.8156 19.2432 17.9251 178.524 1.52204 93.3327 -50.4254 0.33688 -4.82137 43.5931 2.85306 2.86124 26.6427 0.375756 -5.81344 1.93345 7.56235 -89.5363 11.7464 4.06316 0.49588 0.08176 4.08103 0.316264 -22.4973 3.72605 1.69573 -2.48469 3.72604 1.69571 92.446 -43.8349 -98.303 25.1027 -22.1394 -0.980065 -25.0904 -3.96376 -91.3126 -31.614 -0.350034 -2.67561 -95.437 -46.6862 69.6313 -41.3162 14.4213 44.4188 7.33201 -0.308598 -74.1306 29.1325 1.64365 1.76474 14.6032 -13.4472 16.2407 2.76064 -17.5925 -12.3762 
-34.4895 90.2582 47.2736 2.31374 -74.274 -7.80643 -169.839 43.1847 84.0992 -34.1449 22.8537 -5.49653 57.1815 -1.18768 6.55644 40.3435 9.5031 6.71178 177.407 6.44702 93.8477 -68.896 6.1573 -2.84293 42.4345 1.92318 2.1193 25.2773 0.341855 -5.44093 1.51983 7.74962 -89.5018 11.3682 3.25663 0.665252 -0.298757 3.28275 0.521126 -22.8599 2.90604 1.61397 -2.84728 2.90602 1.61396 92.1441 -47.2056 -98.0872 24.7473 -22.9159 3.662 -20.3834 -7.97531 -85.3997 -31.3923 -0.719542 -1.53699 -96.8177 -49.2079 68.3794 -36.1899 13.1263 40.2614 8.0733 -0.557365 -75.754 30.4123 1.08019 -0.391683 9.25918 -13.2744 12.6804 7.62152 -16.5432 -11.8592 
-34.7673 88.3521 55.9868 -5.54485 -76.271 -16.8383 -169.651 39.0068 83.1517 -44.6213 16.7079 -4.32774 66.1129 7.58138 8.50554 39.7705 8.60821 0.060211 176.257 15.5359 92.209 -87.2719 9.69667 -2.10242 43.4111 -0.209607 0.231858 26.3497 0.389564 -5.95612 1.21028 8.04541 -89.1913 10.7688 2.78319 1.35243 -0.899667 2.84001 1.22855 -23.4463 2.24807 2.12651 -3.43361 2.24808 2.12652 92.2324 -50.4432 -97.3078 24.7697 -21.3694 7.87342 -19.6357 -12.6264 -78.8592 -34.1509 -0.479316 -2.24671 -98.9167 -52.6048 66.4747 -28.6363 12.5909 33.4349 9.54825 -0.705718 -78.0518 29.8054 1.57449 1.35898 8.33546 -11.9764 9.21596 10.8553 -14.6425 -9.91783 
-35.6396 87.2216 64.3744 -8.33754 -75.853 -22.6847 -169.051 34.4094 81.0033 -47.2772 18.4668 -4.66063 66.1083 9.40729 13.8606 47.2314 14.4205 0.0349544 176.044 29.0025 89.3026 -99.8269 10.1771 -2.05153 42.2447 -1.29512 -0.714982 28.2298 0.384668 -5.95781 0.648192 8.14832 -88.7016 10.5494 1.88747 2.40918 -1.12225 1.99164 2.32381 -23.6438 1.0765 2.86475 -3.63116 1.0765 2.86474 91.3165 -51.7084 -98.4531 26.096 -18.6002 13.42 -18.8865 -17.4877 -73.4273 -35.491 -1.10249 -0.174414 -99.9766 -52.1268 64.7997 -24.1343 11.4181 24.2156 9.11891 -0.385724 -78.5066 35.2582 2.19382 2.34838 12.4243 -9.71252 7.53906 8.82087 -12.0026 -8.20545 
-35.891 87.4056 73.44 -4.98357 -75.4773 -17.8563 -170.75 28.349 83.2086 -46.1294 20.5315 -3.62919 67.4635 11.2822 14.7391 49.5045 16.5868 2.22789 173.788 39.8487 91.1458 -102.575 8.93543 -1.72257 43.6835 -1.44944 -0.880603 32.6602 0.396861 -6.75026 0.108333 7.96552 -88.8332 10.9313 0.755679 2.25121 -0.741348 0.854002 2.21579 -23.2609 0.0443769 2.37419 -3.24825 0.0443695 2.37419 90.9307 -52.801 -98.8097 27.1434 -19.3104 22.0929 -11.9322 -16.7491 -69.4312 -36.9964 -0.896607 -1.26928 -99.4661 -50.5308 64.969 -20.6981 9.19429 18.1989 8.55029 -0.873017 -82.0296 34.6098 1.72009 1.0304 12.0327 -7.56316 6.38469 9.17209 -9.5349 -6.9777 
-36.4953 89.0415 83.3266 -6.26404 -75.2768 -17.7268 -172.458 19.5965 85.7731 -40.0966 22.0346 -2.13527 64.5256 7.37192 9.41037 52.1487 19.6675 6.29405 172.907 46.2256 92.5381 -97.007 8.23847 -1.41153 48.8928 -1.61364 -0.988149 34.9316 0.380719 -6.92411 -0.352547 7.76372 -89.0042 11.3443 -0.237241 2.00689 -0.328188 -0.148705 2.01538 -22.8526 -0.829335 1.8429 -2.83997 -0.829331 1.84291 91.4855 -53.0008 -97.9461 27.6137 -21.6661 30.7444 -14.6481 -17.9833 -71.2347 -34.4099 -1.01376 -0.589194 -97.3871 -49.4075 67.6067 -19.7947 5.90792 15.572 9.82948 -2.52815 -90.078 36.0291 1.87335 1.26529 12.2284 -5.24472 4.60517 8.52584 -6.58606 -4.37164 
-37.5395 91.2483 93.8297 -13.7027 -74.7576 -23.3913 -173.317 9.87839 88.8232 -30.7182 23.2824 -0.565244 55.5818 -1.02803 0.899346 52.6083 21.0868 10.2886 173.944 48.6906 93.5493 -84.7065 5.46262 -0.946682 53.9665 -1.21548 -0.680376 36.0935 0.365715 -5.66095 -0.608942 7.55219 -89.2049 11.773 -0.837479 1.67319 0.101162 -0.763042 1.70841 -22.4301 -1.30159 1.34423 -2.41743 -1.30158 1.34421 91.7217 -53.0705 -97.5821 27.6512 -24.3921 38.2671 -15.2045 -18.2683 -72.3063 -30.7942 -0.559356 -1.91475 -95.991 -48.464 69.3655 -19.7419 2.64761 15.9069 10.595 -3.31876 -98.7799 36.7505 1.64616 0.509877 12.7147 -2.84164 2.76752 7.08264 -3.57151 -1.92984 
-39.0214 93.0033 104.234 -19.8913 -75.0607 -28.5884 -173.513 -0.700974 90.1387 -19.1796 24.7039 0.663457 41.3629 -9.87613 -8.49747 47.9652 17.0451 11.5461 174.722 47.8277 93.5082 -68.0447 2.7727 -0.44134 57.7381 -0.755531 -0.347833 37.2287 0.363819 -6.40467 -0.767125 7.50762 -89.3619 11.8646 -1.22514 1.40269 0.193458 -1.16223 1.45524 -22.343 -1.59005 0.969642 -2.33039 -1.59005 0.96964 91.4264 -51.9382 -98.2429 29.5744 -23.5974 44.9882 -14.4853 -17.0986 -72.6947 -26.9097 -0.33302 -2.82767 -95.9667 -48.5101 69.4169 -18.823 0.796211 16.8512 11.0898 -5.06869 -106.306 36.595 1.51439 0.173831 14.2668 -1.19113 1.50752 4.66523 -1.46242 0.6119 
-40.4349 94.3788 114.891 -24.723 -74.3967 -32.0532 -173.702 -5.08362 92.1785 -19.1302 27.6459 1.96288 36.5665 -13.0047 -9.74826 33.8785 3.55444 14.0685 175.306 44.2636 93.7541 -45.568 1.94718 0.374589 60.1914 -0.799852 -0.364135 39.2612 0.311814 -7.62884 -0.850939 7.41642 -89.6199 12.0484 -1.51212 0.924818 0.377987 -1.46995 0.99048 -22.1635 -1.72015 0.427514 -2.15085 -1.72014 0.427528 91.0224 -50.1098 -99.2326 30.4358 -20.7987 49.2649 -17.3033 -15.4697 -74.3369 -23.4006 -0.0329649 -4.17482 -96.0141 -48.57 69.3651 -18.5726 1.26732 17.492 11.6191 -6.71905 -111.375 33.2216 0.930657 -1.23099 15.9856 0.360423 2.93025 2.63273 -0.36563 0.282499 
